<svg id="visual" viewBox="0 0 900 600" width="900" height="600" xmlns="http://www.w3.org/2000/svg" xmlns:xlink="http://www.w3.org/1999/xlink" version="1.1"><rect x="0" y="0" width="900" height="600" fill="#404e81"></rect><g transform="translate(882.2120980296164 -6.519099924296725)"><path d="M148.7 -174.7C185.9 -145.9 204.7 -92.7 220.2 -34.5C235.6 23.7 247.7 86.9 223.6 129.5C199.4 172 139 194.1 81.9 207C24.9 219.9 -29 223.6 -79.3 209.1C-129.7 194.6 -176.5 161.8 -193.5 118.5C-210.5 75.1 -197.6 21.3 -185.5 -30.2C-173.5 -81.7 -162.3 -130.9 -131.5 -160.8C-100.7 -190.7 -50.4 -201.3 2.7 -204.5C55.7 -207.7 111.4 -203.4 148.7 -174.7" fill="#c5bac4"></path></g></svg>